<svg xmlns="http://www.w3.org/2000/svg" style="display:none">
  <symbol id="brain" viewBox="0 0 24 24">
    <path d="M9 7a3 3 0 0 0-5 2 3.5 3.5 0 0 0 1.2 6.6V17a2 2 0 0 0 2 2h2" fill="none" stroke="currentColor" stroke-linecap="round" stroke-linejoin="round" stroke-width="1.8"/>
    <path d="M15 7a3 3 0 0 1 5 2 3.5 3.5 0 0 1-1.2 6.6V17a2 2 0 0 1-2 2h-2" fill="none" stroke="currentColor" stroke-linecap="round" stroke-linejoin="round" stroke-width="1.8"/>
    <path d="M10 9.5h4M10 13h4M12 8v11" fill="none" stroke="currentColor" stroke-linecap="round" stroke-linejoin="round" stroke-width="1.8"/>
  </symbol>
  <symbol id="rotate-right" viewBox="0 0 24 24">
    <path d="M20 11a8 8 0 1 1-2.34-5.66" fill="none" stroke="currentColor" stroke-linecap="round" stroke-linejoin="round" stroke-width="1.8"/>
    <path d="M20 4v7h-7" fill="none" stroke="currentColor" stroke-linecap="round" stroke-linejoin="round" stroke-width="1.8"/>
  </symbol>
  <symbol id="moon" viewBox="0 0 24 24">
    <path d="M20 14.5A8.5 8.5 0 1 1 9.5 4 7 7 0 0 0 20 14.5Z" fill="none" stroke="currentColor" stroke-linecap="round" stroke-linejoin="round" stroke-width="1.8"/>
  </symbol>
  <symbol id="sun" viewBox="0 0 24 24">
    <circle cx="12" cy="12" r="4" fill="none" stroke="currentColor" stroke-width="1.8"/>
    <path d="M12 2.5v2.8M12 18.7v2.8M21.5 12h-2.8M5.3 12H2.5M18.7 5.3l-2 2M7.3 16.7l-2 2M18.7 18.7l-2-2M7.3 7.3l-2-2" fill="none" stroke="currentColor" stroke-linecap="round" stroke-width="1.8"/>
  </symbol>
  <symbol id="expand" viewBox="0 0 24 24">
    <path d="M8 3H3v5M16 3h5v5M8 21H3v-5M16 21h5v-5" fill="none" stroke="currentColor" stroke-linecap="round" stroke-linejoin="round" stroke-width="1.8"/>
    <path d="M3 8l6-6M21 8l-6-6M3 16l6 6M21 16l-6 6" fill="none" stroke="currentColor" stroke-linecap="round" stroke-linejoin="round" stroke-width="1.8"/>
  </symbol>
  <symbol id="compress" viewBox="0 0 24 24">
    <path d="M9 9H3V3M21 9h-6V3M9 15H3v6M21 15h-6v6" fill="none" stroke="currentColor" stroke-linecap="round" stroke-linejoin="round" stroke-width="1.8"/>
    <path d="M9 9 3 3M15 9l6-6M9 15l-6 6M15 15l6 6" fill="none" stroke="currentColor" stroke-linecap="round" stroke-linejoin="round" stroke-width="1.8"/>
  </symbol>
  <symbol id="folder-tree" viewBox="0 0 24 24">
    <path d="M3 7.5A2.5 2.5 0 0 1 5.5 5H10l2 2h6.5A2.5 2.5 0 0 1 21 9.5v8A2.5 2.5 0 0 1 18.5 20h-13A2.5 2.5 0 0 1 3 17.5Z" fill="none" stroke="currentColor" stroke-linejoin="round" stroke-width="1.8"/>
    <path d="M8 11v5M8 13.5h4M12 13.5v3M12 16.5h3" fill="none" stroke="currentColor" stroke-linecap="round" stroke-width="1.8"/>
  </symbol>
  <symbol id="chevron-up" viewBox="0 0 24 24">
    <path d="m6 15 6-6 6 6" fill="none" stroke="currentColor" stroke-linecap="round" stroke-linejoin="round" stroke-width="2"/>
  </symbol>
  <symbol id="magnifying-glass" viewBox="0 0 24 24">
    <circle cx="11" cy="11" r="6.5" fill="none" stroke="currentColor" stroke-width="1.8"/>
    <path d="m16 16 4.5 4.5" fill="none" stroke="currentColor" stroke-linecap="round" stroke-width="1.8"/>
  </symbol>
  <symbol id="comments" viewBox="0 0 24 24">
    <path d="M5.5 6h9A3.5 3.5 0 0 1 18 9.5v4A3.5 3.5 0 0 1 14.5 17H9l-3.5 2v-2A3.5 3.5 0 0 1 2 13.5v-4A3.5 3.5 0 0 1 5.5 6Z" fill="none" stroke="currentColor" stroke-linejoin="round" stroke-width="1.8"/>
    <path d="M11 9h7A3 3 0 0 1 21 12v3A3 3 0 0 1 18 18h-1v2l-2.8-2H13" fill="none" stroke="currentColor" stroke-linejoin="round" stroke-width="1.8"/>
  </symbol>
  <symbol id="circle-info" viewBox="0 0 24 24">
    <circle cx="12" cy="12" r="9" fill="none" stroke="currentColor" stroke-width="1.8"/>
    <path d="M12 10.5v5M12 7.5h.01" fill="none" stroke="currentColor" stroke-linecap="round" stroke-width="1.8"/>
  </symbol>
  <symbol id="paper-plane" viewBox="0 0 24 24">
    <path d="M3 11.5 20.5 3l-4.8 18-4.2-6-8-3.5Z" fill="none" stroke="currentColor" stroke-linejoin="round" stroke-width="1.8"/>
    <path d="M20.5 3 11.5 15" fill="none" stroke="currentColor" stroke-linecap="round" stroke-width="1.8"/>
  </symbol>
  <symbol id="arrow-down" viewBox="0 0 24 24">
    <path d="M12 4v14M6 12l6 6 6-6" fill="none" stroke="currentColor" stroke-linecap="round" stroke-linejoin="round" stroke-width="1.8"/>
  </symbol>
  <symbol id="file-circle-check" viewBox="0 0 24 24">
    <path d="M8 3h6l4 4v10a2 2 0 0 1-2 2h-3" fill="none" stroke="currentColor" stroke-linejoin="round" stroke-width="1.8"/>
    <path d="M14 3v5h5" fill="none" stroke="currentColor" stroke-linejoin="round" stroke-width="1.8"/>
    <circle cx="9" cy="16" r="4.5" fill="none" stroke="currentColor" stroke-width="1.8"/>
    <path d="m7.2 16 1.2 1.2L11 14.5" fill="none" stroke="currentColor" stroke-linecap="round" stroke-linejoin="round" stroke-width="1.8"/>
  </symbol>
  <symbol id="timeline" viewBox="0 0 24 24">
    <path d="M5 12h14" fill="none" stroke="currentColor" stroke-linecap="round" stroke-width="1.8"/>
    <circle cx="6" cy="12" r="2" fill="none" stroke="currentColor" stroke-width="1.8"/>
    <circle cx="12" cy="12" r="2" fill="none" stroke="currentColor" stroke-width="1.8"/>
    <circle cx="18" cy="12" r="2" fill="none" stroke="currentColor" stroke-width="1.8"/>
  </symbol>
  <symbol id="thumbtack" viewBox="0 0 24 24">
    <path d="M8 4h8l-1 5 2.5 2.5H6.5L9 9 8 4Z" fill="none" stroke="currentColor" stroke-linejoin="round" stroke-width="1.8"/>
    <path d="M12 11.5V20" fill="none" stroke="currentColor" stroke-linecap="round" stroke-width="1.8"/>
  </symbol>
  <symbol id="file-lines" viewBox="0 0 24 24">
    <path d="M8 3h6l4 4v12a2 2 0 0 1-2 2H8a2 2 0 0 1-2-2V5a2 2 0 0 1 2-2Z" fill="none" stroke="currentColor" stroke-linejoin="round" stroke-width="1.8"/>
    <path d="M14 3v5h5M9 12h6M9 15.5h6" fill="none" stroke="currentColor" stroke-linecap="round" stroke-linejoin="round" stroke-width="1.8"/>
  </symbol>
  <symbol id="folder" viewBox="0 0 24 24">
    <path d="M3 8a2 2 0 0 1 2-2h4l2 2h8a2 2 0 0 1 2 2v7.5a2.5 2.5 0 0 1-2.5 2.5h-13A2.5 2.5 0 0 1 3 17.5Z" fill="none" stroke="currentColor" stroke-linejoin="round" stroke-width="1.8"/>
  </symbol>
  <symbol id="folder-open" viewBox="0 0 24 24">
    <path d="M3 9.5A2.5 2.5 0 0 1 5.5 7H10l2 2h6.5A2.5 2.5 0 0 1 21 11.5v5A2.5 2.5 0 0 1 18.5 19h-13A2.5 2.5 0 0 1 3 16.5Z" fill="none" stroke="currentColor" stroke-linejoin="round" stroke-width="1.8"/>
    <path d="M3 11h18" fill="none" stroke="currentColor" stroke-width="1.8"/>
  </symbol>
  <symbol id="compass" viewBox="0 0 24 24">
    <circle cx="12" cy="12" r="8.5" fill="none" stroke="currentColor" stroke-width="1.8"/>
    <path d="m14.5 9.5-4.5 1.5-1.5 4.5 4.5-1.5 1.5-4.5Z" fill="none" stroke="currentColor" stroke-linejoin="round" stroke-width="1.8"/>
  </symbol>
  <symbol id="microscope" viewBox="0 0 24 24">
    <path d="m10 5 4 4-2 2-4-4Zm2 6 3 3" fill="none" stroke="currentColor" stroke-linecap="round" stroke-linejoin="round" stroke-width="1.8"/>
    <path d="M8 14a5 5 0 0 0 5 5h4M6 20h12M9 9l-3 3v2" fill="none" stroke="currentColor" stroke-linecap="round" stroke-linejoin="round" stroke-width="1.8"/>
  </symbol>
  <symbol id="sparkles" viewBox="0 0 24 24">
    <path d="M12 3.5 13.7 8l4.8 1.8-4.8 1.7L12 16l-1.7-4.5L5.5 9.8 10.3 8Zm6 10.5.9 2.1L21 17l-2.1.9L18 20l-.9-2.1L15 17l2.1-.9Zm-11 2 .9 2.1L10 19l-2.1.9L7 22l-.9-2.1L4 19l2.1-.9Z" fill="none" stroke="currentColor" stroke-linecap="round" stroke-linejoin="round" stroke-width="1.6"/>
  </symbol>
</svg>
